<svg width="50" height="30" viewBox="0 0 50 30" fill="none" xmlns="http://www.w3.org/2000/svg">
<g clip-path="url(#clip0_2484_661)">
<path d="M14.0927 10.8909C14.0805 11.3922 14.1431 11.8926 14.2783 12.3755C14.4314 12.7856 14.6075 13.1867 14.8057 13.5769C14.8817 13.6895 14.9225 13.8221 14.9229 13.9579C14.9229 14.1239 14.8252 14.29 14.6104 14.456L13.5652 15.1593C13.4389 15.2482 13.2898 15.299 13.1355 15.3058C12.9465 15.2907 12.7694 15.2074 12.6373 15.0714C12.4151 14.8297 12.2157 14.5682 12.0415 14.29C11.8755 14.0067 11.7094 13.6941 11.5238 13.3132C10.2247 14.8467 8.59356 15.6118 6.63029 15.6086C5.23353 15.6086 4.12003 15.2081 3.29956 14.4072C2.47908 13.6062 2.06885 12.5416 2.06885 11.2132C2.06885 9.7969 2.56699 8.6541 3.58282 7.78479C4.59864 6.91548 5.94656 6.48571 7.65588 6.48571C8.24766 6.48976 8.83843 6.53546 9.4238 6.62245C10.0392 6.71036 10.674 6.83734 11.3382 6.98385V5.77268C11.3382 4.51267 11.0745 3.62382 10.5568 3.11591C10.0392 2.608 9.13077 2.35404 7.84146 2.35404C7.23603 2.35492 6.6328 2.42704 6.04423 2.56893C5.43205 2.71334 4.83134 2.90269 4.24701 3.13544C4.05773 3.22266 3.86175 3.29452 3.66096 3.35033C3.57519 3.37657 3.48671 3.39296 3.39723 3.39917C3.16281 3.39917 3.0456 3.23312 3.0456 2.88149V2.07078C3.0456 1.80706 3.0749 1.60194 3.16281 1.48473C3.29005 1.33311 3.45047 1.2128 3.63165 1.1331C4.30039 0.802424 5.00506 0.550053 5.73167 0.381C6.58057 0.164915 7.45391 0.0598516 8.32984 0.0684389C10.3126 0.0684389 11.7582 0.517745 12.6862 1.41636C13.6141 2.31497 14.0634 3.68243 14.0634 5.50896V10.9006H14.0927V10.8909ZM7.34331 13.4207C7.92599 13.4158 8.50375 13.3135 9.05263 13.1179C9.66401 12.9073 10.2096 12.5402 10.635 12.0532C10.9042 11.7473 11.0982 11.3827 11.2015 10.9885C11.3146 10.5151 11.3704 10.0297 11.3675 9.54295V8.83968C10.8621 8.71648 10.3501 8.62191 9.83404 8.55642C9.31576 8.49015 8.79373 8.45752 8.27123 8.45875C7.15773 8.45875 6.33726 8.67364 5.79028 9.12294C5.2433 9.57225 4.97957 10.2071 4.97957 11.0374C4.97957 11.8188 5.17492 12.4048 5.59493 12.8053C5.9954 13.2155 6.57168 13.4207 7.34331 13.4207ZM20.6955 15.2179C20.3927 15.2179 20.1974 15.169 20.0606 15.0518C19.9239 14.9542 19.8067 14.7197 19.709 14.4072L15.802 1.5531C15.7277 1.3381 15.6785 1.11522 15.6555 0.888912C15.6555 0.625188 15.7922 0.468908 16.056 0.468908H17.6871C17.9997 0.468908 18.2146 0.517745 18.3318 0.634956C18.4685 0.732631 18.5662 0.967052 18.6639 1.27961L21.4574 12.2876L24.0556 1.27961C24.1435 0.947517 24.2411 0.732631 24.3681 0.634956C24.5677 0.513896 24.7992 0.456014 25.0323 0.468908H26.3705C26.683 0.468908 26.8979 0.517745 27.0347 0.634956C27.1714 0.732631 27.2886 0.967052 27.3472 1.27961L29.9747 12.4244L32.8561 1.27961C32.9538 0.947517 33.071 0.732631 33.1882 0.634956C33.381 0.514931 33.606 0.456973 33.8329 0.468908H35.3761C35.6399 0.468908 35.7961 0.605653 35.7961 0.888912C35.7961 0.976819 35.7766 1.05496 35.7668 1.15264C35.7394 1.29563 35.7002 1.43611 35.6496 1.57264L31.6449 14.4267C31.5473 14.7588 31.43 14.9737 31.2933 15.0714C31.1036 15.1902 30.882 15.2482 30.6584 15.2374H29.2324C28.9198 15.2374 28.7049 15.1886 28.5682 15.0714C28.4314 14.9542 28.3142 14.7393 28.2556 14.4072L25.677 3.68243L23.1179 14.3974C23.03 14.7295 22.9323 14.9444 22.8053 15.0616C22.6783 15.1788 22.4439 15.2276 22.1411 15.2276H20.6955V15.2179ZM42.0669 15.6672C41.2048 15.6701 40.3455 15.5684 39.5078 15.3644C38.6776 15.1593 38.0231 14.9444 37.5934 14.7002C37.3296 14.5537 37.1441 14.3876 37.0757 14.2314C37.0098 14.0839 36.9765 13.924 36.978 13.7625V12.9127C36.978 12.5611 37.1148 12.3951 37.3589 12.3951C37.4616 12.3977 37.5634 12.4142 37.6617 12.4439C37.7594 12.4732 37.9157 12.5416 38.0817 12.61C38.6682 12.8693 39.2804 13.0657 39.9083 13.196C40.5608 13.3287 41.2252 13.3941 41.8911 13.3914C42.9362 13.3914 43.7567 13.2058 44.3232 12.8444C44.5953 12.6814 44.8193 12.4489 44.972 12.1709C45.1248 11.8928 45.2009 11.5792 45.1925 11.262C45.1997 11.048 45.1636 10.8348 45.0864 10.635C45.0092 10.4353 44.8924 10.2532 44.7432 10.0997C44.4404 9.78713 43.8739 9.50388 43.0632 9.23038L40.6506 8.47828C39.4394 8.09735 38.5408 7.53083 37.9938 6.77873C37.459 6.08789 37.1672 5.23982 37.1636 4.36615C37.1474 3.72188 37.3024 3.08484 37.6129 2.52009C37.9152 1.98662 38.3242 1.52114 38.8143 1.15264C39.3339 0.761647 39.9195 0.467199 40.5432 0.283325C41.226 0.0889661 41.9332 -0.00642502 42.6432 6.61282e-05C43.0154 -0.00149568 43.3874 0.0213442 43.7567 0.0684389C44.1376 0.117277 44.4892 0.185649 44.8409 0.254022C45.173 0.34193 45.4855 0.42007 45.7883 0.517745C46.0338 0.590816 46.2698 0.692442 46.4916 0.820539C46.726 0.957284 46.8921 1.08426 46.9897 1.24054C47.0956 1.4026 47.1469 1.59424 47.1362 1.78752V2.56893C47.1362 2.92056 46.9995 3.09637 46.7553 3.09637C46.6186 3.09637 46.4037 3.028 46.1204 2.90102C45.173 2.47125 44.1083 2.25637 42.9264 2.25637C41.979 2.25637 41.2269 2.40288 40.719 2.72521C40.2111 3.04754 39.9376 3.52615 39.9376 4.20987C39.9323 4.4309 39.9739 4.65053 40.0598 4.85426C40.1457 5.058 40.2738 5.24119 40.4357 5.39174C40.7678 5.70431 41.3832 6.02663 42.2622 6.30989L44.626 7.06199C45.8274 7.44293 46.6869 7.98014 47.2046 8.6541C47.7112 9.3221 47.9794 10.1405 47.9665 10.9788C47.9758 11.6481 47.8286 12.3104 47.5367 12.9127C47.2391 13.4799 46.8266 13.9789 46.3255 14.3779C45.7771 14.8054 45.1498 15.1207 44.4795 15.3058C43.6987 15.55 42.8849 15.6719 42.0669 15.6672Z" fill="white"/>
<path d="M45.212 23.7449C39.7422 27.7887 31.7914 29.9277 24.9541 29.9277C15.3722 29.9277 6.73767 26.3821 0.222721 20.4923C-0.294958 20.0235 0.173883 19.3983 0.789238 19.7597C7.8414 23.8523 16.5443 26.3333 25.5402 26.3333C31.6156 26.3333 38.277 25.0733 44.4208 22.4751C45.3292 22.0649 46.1106 23.0807 45.212 23.7449ZM47.4878 21.1565C46.7846 20.2579 42.8678 20.7267 41.0803 20.9416C40.5529 21.01 40.465 20.5411 40.9436 20.1895C44.0692 17.9918 49.2069 18.6267 49.8125 19.3593C50.4083 20.1114 49.6464 25.2491 46.7162 27.7105C46.2669 28.0915 45.8371 27.8961 46.0325 27.398C46.7064 25.7472 48.1911 22.0356 47.4878 21.1565Z" fill="#FF9900"/>
</g>
<defs>
<clipPath id="clip0_2484_661">
<rect width="50" height="29.9277" fill="white"/>
</clipPath>
</defs>
</svg>
